<svg id="la_rose_des_vents" data-name="la rose des vents" xmlns="http://www.w3.org/2000/svg" viewBox="0 0 660.93 660.93"><defs><style>.cls-1,.cls-4{fill:#fff;}.cls-2,.cls-3{fill:none;}.cls-2{stroke:#fff;}.cls-2,.cls-4{stroke-miterlimit:10;}.cls-4{stroke:#1e1e1c;}.cls-5{fill:#010101;}</style></defs><path class="cls-1" d="M742.82,332.25a.59.59,0,0,0,.08-.19l.09,0Z" transform="translate(-265.04 -90.54)"/><path class="cls-2" d="M477.21,425.6" transform="translate(-265.04 -90.54)"/><circle class="cls-3" cx="330.46" cy="330.46" r="330.46"/><path class="cls-4" d="M618.59,323.74" transform="translate(-265.04 -90.54)"/><polygon class="cls-1" points="552.56 330.67 334.37 330.67 363.89 360.54 552.56 330.67"/><polygon class="cls-1" points="329.69 107.84 329.64 326.03 359.51 296.52 329.69 107.84"/><polygon class="cls-1" points="106.22 330.57 324.41 330.67 294.9 300.79 106.22 330.57"/><polygon class="cls-1" points="329.84 553.62 329.89 335.43 300.02 364.94 329.84 553.62"/><polygon class="cls-1" points="467.88 470.07 366.01 367.76 362.63 393.25 467.88 470.07"/><polygon class="cls-1" points="468.97 192.37 367.15 293.71 392.13 297.6 468.97 192.37"/><polygon class="cls-1" points="191.4 191.55 291.8 292.47 296.61 268.42 191.4 191.55"/><polygon class="cls-1" points="190.49 469.16 291.74 368.39 267.34 363.94 190.49 469.16"/><polygon class="cls-1" points="106.22 330.67 296.61 358.8 294.89 360.54 106.22 330.67"/><polygon class="cls-1" points="329.89 554.32 358.02 363.94 359.76 365.65 329.89 554.32"/><polygon class="cls-1" points="552.56 330.66 362.17 302.54 363.89 300.8 552.56 330.66"/><polygon class="cls-1" points="329.89 107.84 301.76 298.23 300.02 296.51 329.89 107.84"/><polygon class="cls-1" points="190.49 469.16 296.89 391.28 296.88 392.96 190.49 469.16"/><polygon class="cls-1" points="467.88 470.07 390 363.67 391.68 363.68 467.88 470.07"/><polygon class="cls-1" points="468.08 193.25 361.69 271.12 361.69 269.44 468.08 193.25"/><polygon class="cls-1" points="191.4 191.79 269.28 298.18 267.6 298.18 191.4 191.79"/><path class="cls-5" d="M635,292" transform="translate(-265.04 -90.54)"/></svg>